<svg width="299" height="69" viewBox="0 0 299 69" fill="none" xmlns="http://www.w3.org/2000/svg">
<path d="M32.3075 4.81863L60.2866 20.864V52.9547L32.3075 69L4.32839 52.9547V20.864L32.3075 4.81863Z" fill="#6C3C3C"/>
<path d="M32.3075 4.81863L60.2866 20.864V52.9547L32.3075 69L4.32839 52.9547V20.864L32.3075 4.81863Z" fill="url(#paint0_linear)"/>
<path d="M32.5457 8.52603L57.5204 22.8367V51.4582L32.5457 65.7689L7.57105 51.4582V22.8367L32.5457 8.52603Z" fill="white"/>
<rect x="26.0974" y="50.6265" width="50.6265" height="12.1504" transform="rotate(-90 26.0974 50.6265)" fill="white"/>
<rect x="34.8726" y="34.5752" width="25.9169" height="2.81751" transform="rotate(-30 34.8726 34.5752)" fill="#C4C4C4"/>
<rect x="34.8726" y="34.5752" width="25.9169" height="2.81751" transform="rotate(-30 34.8726 34.5752)" fill="url(#paint1_linear)"/>
<rect x="30.8225" y="66.827" width="14.8504" height="2.70008" transform="rotate(-90 30.8225 66.827)" fill="#C4C4C4"/>
<rect x="30.8225" y="66.827" width="14.8504" height="2.70008" transform="rotate(-90 30.8225 66.827)" fill="url(#paint2_linear)"/>
<rect x="5.72284" y="20.823" width="28.6491" height="2.81751" transform="rotate(28.1528 5.72284 20.823)" fill="#C4C4C4"/>
<rect x="5.72284" y="20.823" width="28.6491" height="2.81751" transform="rotate(28.1528 5.72284 20.823)" fill="url(#paint3_linear)"/>
<path d="M77.836 55V51.654L74.602 45.984H76.184L78.592 50.366L81 45.984H82.582L79.348 51.654V55H77.836ZM85.9213 55.14C84.7267 55.14 83.8493 54.8413 83.2893 54.244C82.7387 53.6467 82.4633 52.7927 82.4633 51.682C82.4633 50.5713 82.7433 49.7173 83.3033 49.12C83.8633 48.5227 84.736 48.224 85.9213 48.224C87.116 48.224 87.9933 48.5227 88.5533 49.12C89.1133 49.7173 89.3933 50.5713 89.3933 51.682C89.3933 52.7927 89.1133 53.6467 88.5533 54.244C88.0027 54.8413 87.1253 55.14 85.9213 55.14ZM85.9213 53.852C86.6213 53.852 87.116 53.684 87.4053 53.348C87.704 53.0027 87.8533 52.4473 87.8533 51.682C87.8533 50.9167 87.704 50.366 87.4053 50.03C87.116 49.694 86.6213 49.526 85.9213 49.526C85.2307 49.526 84.736 49.694 84.4373 50.03C84.148 50.366 84.0033 50.9167 84.0033 51.682C84.0033 52.4473 84.148 53.0027 84.4373 53.348C84.736 53.684 85.2307 53.852 85.9213 53.852ZM93.2721 55.14C92.4788 55.14 91.8674 54.9207 91.4381 54.482C91.0181 54.0433 90.8081 53.3993 90.8081 52.55V48.364H92.3341V52.55C92.3341 53.0447 92.4554 53.4087 92.6981 53.642C92.9408 53.8753 93.3141 53.992 93.8181 53.992C94.1914 53.992 94.5368 53.922 94.8541 53.782C95.1714 53.642 95.4468 53.4553 95.6801 53.222V48.364H97.1921V55H95.8061L95.7361 54.314C95.4374 54.5473 95.0828 54.7433 94.6721 54.902C94.2614 55.0607 93.7948 55.14 93.2721 55.14ZM98.9718 55V48.364H100.372L100.456 49.134C100.773 48.9287 101.151 48.742 101.59 48.574C102.029 48.406 102.463 48.2893 102.892 48.224V49.386C102.631 49.4327 102.346 49.5027 102.038 49.596C101.739 49.68 101.455 49.778 101.184 49.89C100.913 49.9927 100.685 50.1 100.498 50.212V55H98.9718ZM107.23 55V45.984H110.884C112.218 45.984 113.208 46.3387 113.852 47.048C114.496 47.748 114.818 48.9147 114.818 50.548C114.818 52.088 114.5 53.2173 113.866 53.936C113.231 54.6453 112.237 55 110.884 55H107.23ZM108.756 53.824H110.646C111.234 53.824 111.724 53.74 112.116 53.572C112.508 53.3947 112.802 53.068 112.998 52.592C113.194 52.116 113.292 51.4347 113.292 50.548C113.292 49.6613 113.203 48.9753 113.026 48.49C112.848 48.0047 112.564 47.664 112.172 47.468C111.789 47.272 111.28 47.174 110.646 47.174H108.756V53.824ZM116.321 55V48.364H117.721L117.805 49.134C118.123 48.9287 118.501 48.742 118.939 48.574C119.378 48.406 119.812 48.2893 120.241 48.224V49.386C119.98 49.4327 119.695 49.5027 119.387 49.596C119.089 49.68 118.804 49.778 118.533 49.89C118.263 49.9927 118.034 50.1 117.847 50.212V55H116.321ZM124.439 55.14C123.282 55.14 122.386 54.8553 121.751 54.286C121.117 53.7167 120.799 52.844 120.799 51.668C120.799 50.604 121.07 49.764 121.611 49.148C122.153 48.532 122.974 48.224 124.075 48.224C125.083 48.224 125.839 48.49 126.343 49.022C126.857 49.5447 127.113 50.2213 127.113 51.052V52.284H122.255C122.33 52.928 122.563 53.3713 122.955 53.614C123.347 53.8567 123.945 53.978 124.747 53.978C125.083 53.978 125.429 53.9453 125.783 53.88C126.138 53.8147 126.446 53.7307 126.707 53.628V54.748C126.409 54.8787 126.063 54.9767 125.671 55.042C125.289 55.1073 124.878 55.14 124.439 55.14ZM122.255 51.29H125.769V50.828C125.769 50.3707 125.643 50.016 125.391 49.764C125.139 49.5027 124.715 49.372 124.117 49.372C123.408 49.372 122.918 49.526 122.647 49.834C122.386 50.142 122.255 50.6273 122.255 51.29ZM130.671 55.14C130.251 55.14 129.859 55.0653 129.495 54.916C129.14 54.7667 128.855 54.5427 128.641 54.244C128.426 53.936 128.319 53.558 128.319 53.11C128.319 52.4753 128.533 51.9667 128.963 51.584C129.401 51.192 130.073 50.996 130.979 50.996H133.107V50.702C133.107 50.3847 133.055 50.1327 132.953 49.946C132.859 49.7593 132.682 49.624 132.421 49.54C132.169 49.456 131.795 49.414 131.301 49.414C130.517 49.414 129.784 49.5307 129.103 49.764V48.63C129.401 48.5087 129.765 48.4107 130.195 48.336C130.624 48.2613 131.086 48.224 131.581 48.224C132.551 48.224 133.289 48.42 133.793 48.812C134.306 49.204 134.563 49.8433 134.563 50.73V55H133.261L133.163 54.328C132.892 54.5893 132.556 54.79 132.155 54.93C131.763 55.07 131.268 55.14 130.671 55.14ZM131.077 54.048C131.534 54.048 131.931 53.9733 132.267 53.824C132.612 53.6653 132.892 53.4553 133.107 53.194V52.032H131.007C130.559 52.032 130.232 52.1207 130.027 52.298C129.831 52.466 129.733 52.7273 129.733 53.082C129.733 53.4273 129.849 53.6747 130.083 53.824C130.316 53.9733 130.647 54.048 131.077 54.048ZM136.255 55V48.364H137.655L137.725 49.064C138.052 48.8027 138.411 48.5973 138.803 48.448C139.195 48.2987 139.615 48.224 140.063 48.224C140.539 48.224 140.908 48.3033 141.169 48.462C141.44 48.6113 141.645 48.8213 141.785 49.092C142.093 48.84 142.448 48.6347 142.849 48.476C143.25 48.308 143.731 48.224 144.291 48.224C145.056 48.224 145.621 48.42 145.985 48.812C146.349 49.204 146.531 49.806 146.531 50.618V55H145.033V50.772C145.033 50.2587 144.926 49.8993 144.711 49.694C144.496 49.4887 144.146 49.386 143.661 49.386C143.344 49.386 143.04 49.442 142.751 49.554C142.471 49.666 142.228 49.834 142.023 50.058C142.051 50.1607 142.07 50.268 142.079 50.38C142.088 50.492 142.093 50.6133 142.093 50.744V55H140.679V50.786C140.679 50.3007 140.595 49.946 140.427 49.722C140.259 49.498 139.942 49.386 139.475 49.386C139.148 49.386 138.836 49.4653 138.537 49.624C138.248 49.7733 137.986 49.9553 137.753 50.17V55H136.255ZM155.462 55.14C154.034 55.14 152.965 54.7667 152.256 54.02C151.547 53.264 151.192 52.0973 151.192 50.52C151.192 48.8773 151.547 47.6873 152.256 46.95C152.965 46.2127 154.034 45.844 155.462 45.844C156.899 45.844 157.968 46.2127 158.668 46.95C159.377 47.6873 159.732 48.8773 159.732 50.52C159.732 52.0973 159.377 53.264 158.668 54.02C157.968 54.7667 156.899 55.14 155.462 55.14ZM155.462 53.852C156.405 53.852 157.095 53.5953 157.534 53.082C157.982 52.5593 158.206 51.7053 158.206 50.52C158.206 49.2693 157.982 48.3967 157.534 47.902C157.095 47.398 156.405 47.146 155.462 47.146C154.529 47.146 153.838 47.398 153.39 47.902C152.951 48.3967 152.732 49.2693 152.732 50.52C152.732 51.7053 152.951 52.5593 153.39 53.082C153.838 53.5953 154.529 53.852 155.462 53.852ZM161.22 55V48.364H162.62L162.704 49.134C163.021 48.9287 163.399 48.742 163.838 48.574C164.277 48.406 164.711 48.2893 165.14 48.224V49.386C164.879 49.4327 164.594 49.5027 164.286 49.596C163.987 49.68 163.703 49.778 163.432 49.89C163.161 49.9927 162.933 50.1 162.746 50.212V55H161.22ZM168.722 55.14C168.124 55.14 167.597 55.0373 167.14 54.832C166.682 54.6267 166.328 54.286 166.076 53.81C165.824 53.334 165.698 52.6947 165.698 51.892C165.698 51.0987 165.833 50.4313 166.104 49.89C166.374 49.3393 166.748 48.924 167.224 48.644C167.709 48.364 168.255 48.224 168.862 48.224C169.263 48.224 169.618 48.2707 169.926 48.364C170.243 48.4573 170.546 48.602 170.836 48.798V45.564H172.362V55H171.06L170.962 54.342C170.663 54.6127 170.336 54.8133 169.982 54.944C169.627 55.0747 169.207 55.14 168.722 55.14ZM169.128 53.992C169.809 53.992 170.378 53.7587 170.836 53.292V49.974C170.397 49.582 169.846 49.386 169.184 49.386C168.54 49.386 168.054 49.6007 167.728 50.03C167.401 50.4593 167.238 51.0847 167.238 51.906C167.238 52.6993 167.387 53.2453 167.686 53.544C167.994 53.8427 168.474 53.992 169.128 53.992ZM177.349 55.14C176.192 55.14 175.296 54.8553 174.661 54.286C174.027 53.7167 173.709 52.844 173.709 51.668C173.709 50.604 173.98 49.764 174.521 49.148C175.063 48.532 175.884 48.224 176.985 48.224C177.993 48.224 178.749 48.49 179.253 49.022C179.767 49.5447 180.023 50.2213 180.023 51.052V52.284H175.165C175.24 52.928 175.473 53.3713 175.865 53.614C176.257 53.8567 176.855 53.978 177.657 53.978C177.993 53.978 178.339 53.9453 178.693 53.88C179.048 53.8147 179.356 53.7307 179.617 53.628V54.748C179.319 54.8787 178.973 54.9767 178.581 55.042C178.199 55.1073 177.788 55.14 177.349 55.14ZM175.165 51.29H178.679V50.828C178.679 50.3707 178.553 50.016 178.301 49.764C178.049 49.5027 177.625 49.372 177.027 49.372C176.318 49.372 175.828 49.526 175.557 49.834C175.296 50.142 175.165 50.6273 175.165 51.29ZM181.509 55V48.364H182.909L182.993 49.134C183.31 48.9287 183.688 48.742 184.127 48.574C184.566 48.406 185 48.2893 185.429 48.224V49.386C185.168 49.4327 184.883 49.5027 184.575 49.596C184.276 49.68 183.992 49.778 183.721 49.89C183.45 49.9927 183.222 50.1 183.035 50.212V55H181.509Z" fill="#6B7280"/>
<path d="M83.8297 41.2825C80.9486 41.2825 78.7924 40.5292 77.3613 39.0228C75.9302 37.4975 75.2146 35.1436 75.2146 31.9612C75.2146 28.647 75.9302 26.2461 77.3613 24.7585C78.7924 23.2708 80.9486 22.527 83.8297 22.527C86.7296 22.527 88.8857 23.2708 90.298 24.7585C91.7292 26.2461 92.4447 28.647 92.4447 31.9612C92.4447 35.1436 91.7292 37.4975 90.298 39.0228C88.8857 40.5292 86.7296 41.2825 83.8297 41.2825ZM83.8297 38.6838C85.7316 38.6838 87.125 38.166 88.0101 37.1303C88.914 36.0758 89.3659 34.3527 89.3659 31.9612C89.3659 29.4379 88.914 27.6772 88.0101 26.6792C87.125 25.6623 85.7316 25.1539 83.8297 25.1539C81.9466 25.1539 80.5531 25.6623 79.6492 26.6792C78.7642 27.6772 78.3217 29.4379 78.3217 31.9612C78.3217 34.3527 78.7642 36.0758 79.6492 37.1303C80.5531 38.166 81.9466 38.6838 83.8297 38.6838ZM95.447 41V22.8095H103.808C105.842 22.8095 107.32 23.3367 108.243 24.3913C109.184 25.427 109.655 26.8393 109.655 28.6282C109.655 29.9087 109.335 31.0009 108.694 31.9047C108.054 32.8086 107.131 33.4394 105.926 33.7972C106.265 34.042 106.529 34.3057 106.717 34.5881C106.906 34.8706 107.094 35.2472 107.282 35.718L109.57 41H106.407L104.175 35.9157C103.968 35.4261 103.714 35.0777 103.412 34.8706C103.13 34.6634 102.64 34.5599 101.944 34.5599H98.5258V41H95.447ZM98.5258 32.0742H102.989C104.1 32.0742 104.975 31.8012 105.616 31.2551C106.256 30.709 106.576 29.8334 106.576 28.6282C106.576 26.3497 105.474 25.2104 103.271 25.2104H98.5258V32.0742ZM112.687 41V22.8095H120.059C122.752 22.8095 124.748 23.525 126.048 24.9562C127.347 26.3685 127.996 28.7223 127.996 32.0177C127.996 35.1248 127.356 37.4033 126.076 38.8533C124.795 40.2844 122.79 41 120.059 41H112.687ZM115.766 38.6273H119.579C120.765 38.6273 121.754 38.4578 122.545 38.1189C123.336 37.7611 123.929 37.102 124.324 36.1417C124.72 35.1813 124.918 33.8066 124.918 32.0177C124.918 30.2288 124.739 28.8447 124.381 27.8655C124.023 26.8863 123.449 26.199 122.658 25.8036C121.886 25.4081 120.86 25.2104 119.579 25.2104H115.766V38.6273ZM131.031 41V22.8095H143.713V25.2104H134.109V30.7184H142.668V33.0911H134.109V38.6273H143.713V41H131.031ZM146.56 41V22.8095H154.921C156.955 22.8095 158.433 23.3367 159.356 24.3913C160.297 25.427 160.768 26.8393 160.768 28.6282C160.768 29.9087 160.448 31.0009 159.808 31.9047C159.168 32.8086 158.245 33.4394 157.04 33.7972C157.379 34.042 157.642 34.3057 157.831 34.5881C158.019 34.8706 158.207 35.2472 158.396 35.718L160.683 41H157.52L155.288 35.9157C155.081 35.4261 154.827 35.0777 154.526 34.8706C154.243 34.6634 153.754 34.5599 153.057 34.5599H149.639V41H146.56ZM149.639 32.0742H154.102C155.213 32.0742 156.089 31.8012 156.729 31.2551C157.369 30.709 157.689 29.8334 157.689 28.6282C157.689 26.3497 156.588 25.2104 154.385 25.2104H149.639V32.0742ZM170.31 41V22.8095H173.474L179.236 34.5881L184.97 22.8095H188.134V41H185.083V27.809L180.168 37.8647H178.304L173.361 27.809V41H170.31ZM191.151 41L198.1 22.8095H201.546L208.438 41H205.274L203.467 36.3111H196.151L194.343 41H191.151ZM196.631 33.9385H202.958L199.795 25.6058L196.631 33.9385ZM211.466 41V22.8095H214.178L223.668 36.1982V22.8095H226.719V41H224.007L214.545 27.6396V41H211.466ZM229.769 41L236.718 22.8095H240.164L247.056 41H243.892L242.084 36.3111H234.769L232.961 41H229.769ZM235.249 33.9385H241.576L238.412 25.6058L235.249 33.9385ZM257.013 41.2825C254.019 41.2825 251.759 40.4727 250.234 38.8533C248.727 37.2338 247.974 35.0401 247.974 32.2719C247.974 30.2759 248.304 28.5529 248.963 27.1029C249.622 25.6341 250.62 24.5042 251.957 23.7134C253.313 22.9225 255.026 22.527 257.098 22.527C258.171 22.527 259.141 22.6023 260.007 22.753C260.892 22.8848 261.72 23.0825 262.493 23.3462V26.0013C260.948 25.4364 259.235 25.1539 257.352 25.1539C255.036 25.1539 253.407 25.7659 252.465 26.9899C251.542 28.2139 251.081 29.9746 251.081 32.2719C251.081 34.3622 251.571 35.9534 252.55 37.0455C253.529 38.1377 255.045 38.6838 257.098 38.6838C258.717 38.6838 260.026 38.4955 261.024 38.1189V33.0346H256.476V31.0291H263.651V39.7854C263.067 40.162 262.229 40.5104 261.137 40.8305C260.063 41.1318 258.689 41.2825 257.013 41.2825ZM266.634 41V22.8095H279.317V25.2104H269.713V30.7184H278.272V33.0911H269.713V38.6273H279.317V41H266.634ZM282.164 41V22.8095H290.525C292.559 22.8095 294.037 23.3367 294.96 24.3913C295.901 25.427 296.372 26.8393 296.372 28.6282C296.372 29.9087 296.052 31.0009 295.411 31.9047C294.771 32.8086 293.849 33.4394 292.643 33.7972C292.982 34.042 293.246 34.3057 293.434 34.5881C293.623 34.8706 293.811 35.2472 293.999 35.718L296.287 41H293.124L290.892 35.9157C290.685 35.4261 290.431 35.0777 290.129 34.8706C289.847 34.6634 289.357 34.5599 288.661 34.5599H285.243V41H282.164ZM285.243 32.0742H289.706C290.817 32.0742 291.692 31.8012 292.333 31.2551C292.973 30.709 293.293 29.8334 293.293 28.6282C293.293 26.3497 292.191 25.2104 289.988 25.2104H285.243V32.0742Z" fill="#0091B9"/>
<defs>
<linearGradient id="paint0_linear" x1="5.42072" y1="40.3786" x2="60.7121" y2="40.3786" gradientUnits="userSpaceOnUse">
<stop stop-color="#0091B9"/>
<stop offset="1" stop-color="#00D58A"/>
</linearGradient>
<linearGradient id="paint1_linear" x1="35.6101" y1="35.9979" x2="60.3131" y2="35.0462" gradientUnits="userSpaceOnUse">
<stop stop-color="#0091B9"/>
<stop offset="1" stop-color="#00D58A"/>
</linearGradient>
<linearGradient id="paint2_linear" x1="20.0222" y1="68.1771" x2="48.7605" y2="66.7131" gradientUnits="userSpaceOnUse">
<stop stop-color="#0091B9"/>
<stop offset="1" stop-color="#00D58A"/>
</linearGradient>
<linearGradient id="paint3_linear" x1="7.27194" y1="22.0244" x2="33.1016" y2="22.3884" gradientUnits="userSpaceOnUse">
<stop stop-color="#0091B9"/>
<stop offset="1" stop-color="#00D58A"/>
</linearGradient>
</defs>
</svg>
