<svg width="225" height="103" viewBox="0 0 225 103" fill="none" xmlns="http://www.w3.org/2000/svg">
<path d="M108.2 7.13849L149.649 30.9086V78.449L108.2 102.219L66.7507 78.449V30.9086L108.2 7.13849Z" fill="#6C3C3C"/>
<path d="M108.2 7.13849L149.649 30.9086V78.449L108.2 102.219L66.7507 78.449V30.9086L108.2 7.13849Z" fill="url(#paint0_linear)"/>
<path d="M108.553 12.6308L145.551 33.8312V76.232L108.553 97.4324L71.5544 76.232V33.8312L108.553 12.6308Z" fill="white"/>
<rect x="99" y="75" width="75" height="18" transform="rotate(-90 99 75)" fill="white"/>
<rect x="112" y="51.2209" width="38.3942" height="4.17397" transform="rotate(-30 112 51.2209)" fill="#C4C4C4"/>
<rect x="112" y="51.2209" width="38.3942" height="4.17397" transform="rotate(-30 112 51.2209)" fill="url(#paint1_linear)"/>
<rect x="106" y="99" width="22" height="4" transform="rotate(-90 106 99)" fill="#C4C4C4"/>
<rect x="106" y="99" width="22" height="4" transform="rotate(-90 106 99)" fill="url(#paint2_linear)"/>
<rect x="68.8164" y="30.8479" width="42.4418" height="4.17397" transform="rotate(28.1528 68.8164 30.8479)" fill="#C4C4C4"/>
<rect x="68.8164" y="30.8479" width="42.4418" height="4.17397" transform="rotate(28.1528 68.8164 30.8479)" fill="url(#paint3_linear)"/>
<rect x="59" y="40" width="99" height="32" fill="white"/>
<path d="M52.72 74.0006C52.144 74.0006 51.6533 73.926 51.248 73.7766V72.4806C51.4293 72.5446 51.5947 72.5873 51.744 72.6086C51.904 72.63 52.064 72.6406 52.224 72.6406C52.5547 72.6406 52.8213 72.5873 53.024 72.4806C53.2267 72.374 53.4027 72.2033 53.552 71.9686C53.712 71.7446 53.8827 71.4513 54.064 71.0886L50.688 63.6006H52.496L54.928 69.2326L57.392 63.6006H59.184L56.096 70.7526C55.8293 71.3926 55.5413 71.9526 55.232 72.4326C54.9333 72.9233 54.5813 73.3073 54.176 73.5846C53.7813 73.862 53.296 74.0006 52.72 74.0006ZM63.4838 71.3446C62.1184 71.3446 61.1158 71.0033 60.4758 70.3206C59.8464 69.638 59.5318 68.662 59.5318 67.3926C59.5318 66.1233 59.8518 65.1473 60.4918 64.4646C61.1318 63.782 62.1291 63.4406 63.4838 63.4406C64.8491 63.4406 65.8518 63.782 66.4918 64.4646C67.1318 65.1473 67.4518 66.1233 67.4518 67.3926C67.4518 68.662 67.1318 69.638 66.4918 70.3206C65.8624 71.0033 64.8598 71.3446 63.4838 71.3446ZM63.4838 69.8726C64.2838 69.8726 64.8491 69.6806 65.1798 69.2966C65.5211 68.902 65.6918 68.2673 65.6918 67.3926C65.6918 66.518 65.5211 65.8886 65.1798 65.5046C64.8491 65.1206 64.2838 64.9286 63.4838 64.9286C62.6944 64.9286 62.1291 65.1206 61.7878 65.5046C61.4571 65.8886 61.2918 66.518 61.2918 67.3926C61.2918 68.2673 61.4571 68.902 61.7878 69.2966C62.1291 69.6806 62.6944 69.8726 63.4838 69.8726ZM71.8846 71.3446C70.978 71.3446 70.2793 71.094 69.7886 70.5926C69.3086 70.0913 69.0686 69.3553 69.0686 68.3846V63.6006H70.8126V68.3846C70.8126 68.95 70.9513 69.366 71.2286 69.6326C71.506 69.8993 71.9326 70.0326 72.5086 70.0326C72.9353 70.0326 73.33 69.9526 73.6926 69.7926C74.0553 69.6326 74.37 69.4193 74.6366 69.1526V63.6006H76.3646V71.1846H74.7806L74.7006 70.4006C74.3593 70.6673 73.954 70.8913 73.4846 71.0726C73.0153 71.254 72.482 71.3446 71.8846 71.3446ZM78.3986 71.1846V63.6006H79.9986L80.0946 64.4806C80.4573 64.246 80.8893 64.0326 81.3906 63.8406C81.892 63.6486 82.388 63.5153 82.8786 63.4406V64.7686C82.58 64.822 82.2546 64.902 81.9026 65.0086C81.5613 65.1046 81.236 65.2166 80.9266 65.3446C80.6173 65.462 80.356 65.5846 80.1426 65.7126V71.1846H78.3986ZM90.9721 71.3446C90.2895 71.3446 89.6868 71.2273 89.1641 70.9926C88.6415 70.758 88.2361 70.3686 87.9481 69.8246C87.6601 69.2806 87.5161 68.55 87.5161 67.6326C87.5161 66.726 87.6708 65.9633 87.9801 65.3446C88.2895 64.7153 88.7161 64.2406 89.2601 63.9206C89.8148 63.6006 90.4388 63.4406 91.1321 63.4406C91.5908 63.4406 91.9961 63.494 92.3481 63.6006C92.7108 63.7073 93.0575 63.8726 93.3881 64.0966V60.4006H95.1321V71.1846H93.6441L93.5321 70.4326C93.1908 70.742 92.8175 70.9713 92.4121 71.1206C92.0068 71.27 91.5268 71.3446 90.9721 71.3446ZM91.4361 70.0326C92.2148 70.0326 92.8655 69.766 93.3881 69.2326V65.4406C92.8868 64.9926 92.2575 64.7686 91.5001 64.7686C90.7641 64.7686 90.2095 65.014 89.8361 65.5046C89.4628 65.9953 89.2761 66.71 89.2761 67.6486C89.2761 68.5553 89.4468 69.1793 89.7881 69.5206C90.1401 69.862 90.6895 70.0326 91.4361 70.0326ZM97.1486 71.1846V63.6006H98.7486L98.8446 64.4806C99.2073 64.246 99.6393 64.0326 100.141 63.8406C100.642 63.6486 101.138 63.5153 101.629 63.4406V64.7686C101.33 64.822 101.005 64.902 100.653 65.0086C100.311 65.1046 99.986 65.2166 99.6766 65.3446C99.3673 65.462 99.106 65.5846 98.8926 65.7126V71.1846H97.1486ZM106.426 71.3446C105.103 71.3446 104.079 71.0193 103.354 70.3686C102.629 69.718 102.266 68.7206 102.266 67.3766C102.266 66.1606 102.575 65.2006 103.194 64.4966C103.813 63.7926 104.751 63.4406 106.01 63.4406C107.162 63.4406 108.026 63.7446 108.602 64.3526C109.189 64.95 109.482 65.7233 109.482 66.6726V68.0806H103.93C104.015 68.8166 104.282 69.3233 104.73 69.6006C105.178 69.878 105.861 70.0166 106.778 70.0166C107.162 70.0166 107.557 69.9793 107.962 69.9046C108.367 69.83 108.719 69.734 109.018 69.6166V70.8966C108.677 71.046 108.282 71.158 107.834 71.2326C107.397 71.3073 106.927 71.3446 106.426 71.3446ZM103.93 66.9446H107.946V66.4166C107.946 65.894 107.802 65.4886 107.514 65.2006C107.226 64.902 106.741 64.7526 106.058 64.7526C105.247 64.7526 104.687 64.9286 104.378 65.2806C104.079 65.6326 103.93 66.1873 103.93 66.9446ZM113.548 71.3446C113.068 71.3446 112.62 71.2593 112.204 71.0886C111.799 70.918 111.473 70.662 111.228 70.3206C110.983 69.9686 110.86 69.5366 110.86 69.0246C110.86 68.2993 111.105 67.718 111.596 67.2806C112.097 66.8326 112.865 66.6086 113.9 66.6086H116.332V66.2726C116.332 65.91 116.273 65.622 116.156 65.4086C116.049 65.1953 115.847 65.0406 115.548 64.9446C115.26 64.8486 114.833 64.8006 114.268 64.8006C113.372 64.8006 112.535 64.934 111.756 65.2006V63.9046C112.097 63.766 112.513 63.654 113.004 63.5686C113.495 63.4833 114.023 63.4406 114.588 63.4406C115.697 63.4406 116.54 63.6646 117.116 64.1126C117.703 64.5606 117.996 65.2913 117.996 66.3046V71.1846H116.508L116.396 70.4166C116.087 70.7153 115.703 70.9446 115.244 71.1046C114.796 71.2646 114.231 71.3446 113.548 71.3446ZM114.012 70.0966C114.535 70.0966 114.988 70.0113 115.372 69.8406C115.767 69.6593 116.087 69.4193 116.332 69.1206V67.7926H113.932C113.42 67.7926 113.047 67.894 112.812 68.0966C112.588 68.2886 112.476 68.5873 112.476 68.9926C112.476 69.3873 112.609 69.67 112.876 69.8406C113.143 70.0113 113.521 70.0966 114.012 70.0966ZM119.93 71.1846V63.6006H121.53L121.61 64.4006C121.983 64.102 122.394 63.8673 122.842 63.6966C123.29 63.526 123.77 63.4406 124.282 63.4406C124.826 63.4406 125.247 63.5313 125.546 63.7126C125.855 63.8833 126.09 64.1233 126.25 64.4326C126.602 64.1446 127.007 63.91 127.466 63.7286C127.925 63.5366 128.474 63.4406 129.114 63.4406C129.989 63.4406 130.634 63.6646 131.05 64.1126C131.466 64.5606 131.674 65.2486 131.674 66.1766V71.1846H129.962V66.3526C129.962 65.766 129.839 65.3553 129.594 65.1206C129.349 64.886 128.949 64.7686 128.394 64.7686C128.031 64.7686 127.685 64.8326 127.354 64.9606C127.034 65.0886 126.757 65.2806 126.522 65.5366C126.554 65.654 126.575 65.7766 126.586 65.9046C126.597 66.0326 126.602 66.1713 126.602 66.3206V71.1846H124.986V66.3686C124.986 65.814 124.89 65.4086 124.698 65.1526C124.506 64.8966 124.143 64.7686 123.61 64.7686C123.237 64.7686 122.879 64.8593 122.538 65.0406C122.207 65.2113 121.909 65.4193 121.642 65.6646V71.1846H119.93ZM140.953 71.3446C139.587 71.3446 138.585 71.0033 137.945 70.3206C137.315 69.638 137.001 68.662 137.001 67.3926C137.001 66.1233 137.321 65.1473 137.961 64.4646C138.601 63.782 139.598 63.4406 140.953 63.4406C142.318 63.4406 143.321 63.782 143.961 64.4646C144.601 65.1473 144.921 66.1233 144.921 67.3926C144.921 68.662 144.601 69.638 143.961 70.3206C143.331 71.0033 142.329 71.3446 140.953 71.3446ZM140.953 69.8726C141.753 69.8726 142.318 69.6806 142.649 69.2966C142.99 68.902 143.161 68.2673 143.161 67.3926C143.161 66.518 142.99 65.8886 142.649 65.5046C142.318 65.1206 141.753 64.9286 140.953 64.9286C140.163 64.9286 139.598 65.1206 139.257 65.5046C138.926 65.8886 138.761 66.518 138.761 67.3926C138.761 68.2673 138.926 68.902 139.257 69.2966C139.598 69.6806 140.163 69.8726 140.953 69.8726ZM146.617 71.1846V63.6006H148.217L148.313 64.4806C148.676 64.246 149.108 64.0326 149.609 63.8406C150.111 63.6486 150.607 63.5153 151.097 63.4406V64.7686C150.799 64.822 150.473 64.902 150.121 65.0086C149.78 65.1046 149.455 65.2166 149.145 65.3446C148.836 65.462 148.575 65.5846 148.361 65.7126V71.1846H146.617ZM155.191 71.3446C154.508 71.3446 153.906 71.2273 153.383 70.9926C152.86 70.758 152.455 70.3686 152.167 69.8246C151.879 69.2806 151.735 68.55 151.735 67.6326C151.735 66.726 151.89 65.9633 152.199 65.3446C152.508 64.7153 152.935 64.2406 153.479 63.9206C154.034 63.6006 154.658 63.4406 155.351 63.4406C155.81 63.4406 156.215 63.494 156.567 63.6006C156.93 63.7073 157.276 63.8726 157.607 64.0966V60.4006H159.351V71.1846H157.863L157.751 70.4326C157.41 70.742 157.036 70.9713 156.631 71.1206C156.226 71.27 155.746 71.3446 155.191 71.3446ZM155.655 70.0326C156.434 70.0326 157.084 69.766 157.607 69.2326V65.4406C157.106 64.9926 156.476 64.7686 155.719 64.7686C154.983 64.7686 154.428 65.014 154.055 65.5046C153.682 65.9953 153.495 66.71 153.495 67.6486C153.495 68.5553 153.666 69.1793 154.007 69.5206C154.359 69.862 154.908 70.0326 155.655 70.0326ZM165.051 71.3446C163.728 71.3446 162.704 71.0193 161.979 70.3686C161.254 69.718 160.891 68.7206 160.891 67.3766C160.891 66.1606 161.2 65.2006 161.819 64.4966C162.438 63.7926 163.376 63.4406 164.635 63.4406C165.787 63.4406 166.651 63.7446 167.227 64.3526C167.814 64.95 168.107 65.7233 168.107 66.6726V68.0806H162.555C162.64 68.8166 162.907 69.3233 163.355 69.6006C163.803 69.878 164.486 70.0166 165.403 70.0166C165.787 70.0166 166.182 69.9793 166.587 69.9046C166.992 69.83 167.344 69.734 167.643 69.6166V70.8966C167.302 71.046 166.907 71.158 166.459 71.2326C166.022 71.3073 165.552 71.3446 165.051 71.3446ZM162.555 66.9446H166.571V66.4166C166.571 65.894 166.427 65.4886 166.139 65.2006C165.851 64.902 165.366 64.7526 164.683 64.7526C163.872 64.7526 163.312 64.9286 163.003 65.2806C162.704 65.6326 162.555 66.1873 162.555 66.9446ZM169.805 71.1846V63.6006H171.405L171.501 64.4806C171.864 64.246 172.296 64.0326 172.797 63.8406C173.298 63.6486 173.794 63.5153 174.285 63.4406V64.7686C173.986 64.822 173.661 64.902 173.309 65.0086C172.968 65.1046 172.642 65.2166 172.333 65.3446C172.024 65.462 171.762 65.5846 171.549 65.7126V71.1846H169.805Z" fill="#6B7280"/>
<path d="M9.82966 60.2825C6.94855 60.2825 4.79243 59.5292 3.36129 58.0228C1.93015 56.4975 1.21458 54.1436 1.21458 50.9612C1.21458 47.647 1.93015 45.2461 3.36129 43.7585C4.79243 42.2708 6.94855 41.527 9.82966 41.527C12.7296 41.527 14.8857 42.2708 16.298 43.7585C17.7292 45.2461 18.4447 47.647 18.4447 50.9612C18.4447 54.1436 17.7292 56.4975 16.298 58.0228C14.8857 59.5292 12.7296 60.2825 9.82966 60.2825ZM9.82966 57.6838C11.7316 57.6838 13.125 57.166 14.0101 56.1303C14.914 55.0758 15.3659 53.3527 15.3659 50.9612C15.3659 48.4379 14.914 46.6772 14.0101 45.6792C13.125 44.6623 11.7316 44.1539 9.82966 44.1539C7.94659 44.1539 6.55311 44.6623 5.64923 45.6792C4.76419 46.6772 4.32166 48.4379 4.32166 50.9612C4.32166 53.3527 4.76419 55.0758 5.64923 56.1303C6.55311 57.166 7.94659 57.6838 9.82966 57.6838ZM21.447 60V41.8095H29.8079C31.8416 41.8095 33.3198 42.3367 34.2425 43.3913C35.184 44.427 35.6548 45.8393 35.6548 47.6282C35.6548 48.9087 35.3347 50.0009 34.6944 50.9047C34.0542 51.8086 33.1315 52.4394 31.9263 52.7972C32.2653 53.042 32.5289 53.3057 32.7172 53.5881C32.9055 53.8706 33.0938 54.2472 33.2821 54.718L35.5701 60H32.4065L30.1751 54.9157C29.9679 54.4261 29.7137 54.0777 29.4124 53.8706C29.13 53.6634 28.6404 53.5599 27.9436 53.5599H24.5258V60H21.447ZM24.5258 51.0742H28.9887C30.0997 51.0742 30.9754 50.8012 31.6156 50.2551C32.2559 49.709 32.576 48.8334 32.576 47.6282C32.576 45.3497 31.4744 44.2104 29.2712 44.2104H24.5258V51.0742ZM38.6871 60V41.8095H46.0593C48.7521 41.8095 50.7482 42.525 52.0475 43.9562C53.3468 45.3685 53.9965 47.7223 53.9965 51.0177C53.9965 54.1248 53.3563 56.4033 52.0758 57.8533C50.7953 59.2844 48.7898 60 46.0593 60H38.6871ZM41.7659 57.6273H45.5791C46.7655 57.6273 47.7541 57.4578 48.545 57.1189C49.3359 56.7611 49.9291 56.102 50.3245 55.1417C50.7199 54.1813 50.9177 52.8066 50.9177 51.0177C50.9177 49.2288 50.7388 47.8447 50.381 46.8655C50.0232 45.8863 49.4489 45.199 48.658 44.8036C47.8859 44.4081 46.8596 44.2104 45.5791 44.2104H41.7659V57.6273ZM57.0305 60V41.8095H69.7131V44.2104H60.1094V49.7184H68.6679V52.0911H60.1094V57.6273H69.7131V60H57.0305ZM72.5604 60V41.8095H80.9213C82.955 41.8095 84.4332 42.3367 85.3559 43.3913C86.2974 44.427 86.7682 45.8393 86.7682 47.6282C86.7682 48.9087 86.4481 50.0009 85.8078 50.9047C85.1676 51.8086 84.2449 52.4394 83.0397 52.7972C83.3787 53.042 83.6423 53.3057 83.8306 53.5881C84.0189 53.8706 84.2072 54.2472 84.3955 54.718L86.6835 60H83.5199L81.2885 54.9157C81.0813 54.4261 80.8271 54.0777 80.5258 53.8706C80.2434 53.6634 79.7538 53.5599 79.057 53.5599H75.6392V60H72.5604ZM75.6392 51.0742H80.1021C81.2131 51.0742 82.0888 50.8012 82.729 50.2551C83.3693 49.709 83.6894 48.8334 83.6894 47.6282C83.6894 45.3497 82.5878 44.2104 80.3846 44.2104H75.6392V51.0742ZM96.3103 60V41.8095H99.4739L105.236 53.5881L110.97 41.8095H114.134V60H111.083V46.809L106.168 56.8647H104.304L99.3609 46.809V60H96.3103ZM117.151 60L124.1 41.8095H127.546L134.438 60H131.274L129.467 55.3111H122.151L120.343 60H117.151ZM122.631 52.9385H128.958L125.795 44.6058L122.631 52.9385ZM137.466 60V41.8095H140.178L149.668 55.1982V41.8095H152.719V60H150.007L140.545 46.6396V60H137.466ZM155.769 60L162.718 41.8095H166.164L173.056 60H169.892L168.084 55.3111H160.769L158.961 60H155.769ZM161.249 52.9385H167.576L164.412 44.6058L161.249 52.9385ZM183.013 60.2825C180.019 60.2825 177.759 59.4727 176.234 57.8533C174.727 56.2338 173.974 54.0401 173.974 51.2719C173.974 49.2759 174.304 47.5529 174.963 46.1029C175.622 44.6341 176.62 43.5042 177.957 42.7134C179.313 41.9225 181.026 41.527 183.098 41.527C184.171 41.527 185.141 41.6023 186.007 41.753C186.892 41.8848 187.72 42.0825 188.493 42.3462V45.0013C186.948 44.4364 185.235 44.1539 183.352 44.1539C181.036 44.1539 179.407 44.7659 178.465 45.9899C177.542 47.2139 177.081 48.9746 177.081 51.2719C177.081 53.3622 177.571 54.9534 178.55 56.0455C179.529 57.1377 181.045 57.6838 183.098 57.6838C184.717 57.6838 186.026 57.4955 187.024 57.1189V52.0346H182.476V50.0291H189.651V58.7854C189.067 59.162 188.229 59.5104 187.137 59.8305C186.063 60.1318 184.689 60.2825 183.013 60.2825ZM192.634 60V41.8095H205.317V44.2104H195.713V49.7184H204.272V52.0911H195.713V57.6273H205.317V60H192.634ZM208.164 60V41.8095H216.525C218.559 41.8095 220.037 42.3367 220.96 43.3913C221.901 44.427 222.372 45.8393 222.372 47.6282C222.372 48.9087 222.052 50.0009 221.411 50.9047C220.771 51.8086 219.849 52.4394 218.643 52.7972C218.982 53.042 219.246 53.3057 219.434 53.5881C219.623 53.8706 219.811 54.2472 219.999 54.718L222.287 60H219.124L216.892 54.9157C216.685 54.4261 216.431 54.0777 216.129 53.8706C215.847 53.6634 215.357 53.5599 214.661 53.5599H211.243V60H208.164ZM211.243 51.0742H215.706C216.817 51.0742 217.692 50.8012 218.333 50.2551C218.973 49.709 219.293 48.8334 219.293 47.6282C219.293 45.3497 218.191 44.2104 215.988 44.2104H211.243V51.0742Z" fill="#0091B9"/>
<defs>
<linearGradient id="paint0_linear" x1="68.3689" y1="59.8183" x2="150.28" y2="59.8183" gradientUnits="userSpaceOnUse">
<stop stop-color="#0091B9"/>
<stop offset="1" stop-color="#00D58A"/>
</linearGradient>
<linearGradient id="paint1_linear" x1="113.093" y1="53.3286" x2="149.688" y2="51.9187" gradientUnits="userSpaceOnUse">
<stop stop-color="#0091B9"/>
<stop offset="1" stop-color="#00D58A"/>
</linearGradient>
<linearGradient id="paint2_linear" x1="90" y1="101" x2="132.574" y2="98.8312" gradientUnits="userSpaceOnUse">
<stop stop-color="#0091B9"/>
<stop offset="1" stop-color="#00D58A"/>
</linearGradient>
<linearGradient id="paint3_linear" x1="71.1113" y1="32.6278" x2="109.376" y2="33.1669" gradientUnits="userSpaceOnUse">
<stop stop-color="#0091B9"/>
<stop offset="1" stop-color="#00D58A"/>
</linearGradient>
</defs>
</svg>
